<mxfile host="app.diagrams.net" modified="2024-02-16T10:34:13.721Z" agent="Mozilla/5.0 (Windows NT 10.0; Win64; x64) AppleWebKit/537.36 (KHTML, like Gecko) Chrome/121.0.0.0 Safari/537.36" etag="TJg0DHCfdIvQliREY-Iy" version="23.1.4" type="device">
  <diagram name="Page-1" id="6483GU3L13XsQskkjvX8">
    <mxGraphModel dx="6408" dy="2087" grid="1" gridSize="10" guides="1" tooltips="1" connect="1" arrows="1" fold="1" page="1" pageScale="1" pageWidth="1169" pageHeight="827" background="#ffffff" math="0" shadow="1">
      <root>
        <mxCell id="0" />
        <mxCell id="1" parent="0" />
        <mxCell id="ndV3JWdsCVKpFoXk2zZ--337" style="edgeStyle=orthogonalEdgeStyle;rounded=0;orthogonalLoop=1;jettySize=auto;html=1;exitX=0.5;exitY=1;exitDx=0;exitDy=0;entryX=0.5;entryY=0;entryDx=0;entryDy=0;" edge="1" parent="1" source="ndV3JWdsCVKpFoXk2zZ--4" target="ndV3JWdsCVKpFoXk2zZ--22">
          <mxGeometry relative="1" as="geometry" />
        </mxCell>
        <mxCell id="ndV3JWdsCVKpFoXk2zZ--338" style="edgeStyle=orthogonalEdgeStyle;rounded=0;orthogonalLoop=1;jettySize=auto;html=1;exitX=0.5;exitY=1;exitDx=0;exitDy=0;entryX=0.5;entryY=0;entryDx=0;entryDy=0;" edge="1" parent="1" source="ndV3JWdsCVKpFoXk2zZ--4" target="ndV3JWdsCVKpFoXk2zZ--152">
          <mxGeometry relative="1" as="geometry" />
        </mxCell>
        <mxCell id="ndV3JWdsCVKpFoXk2zZ--339" style="edgeStyle=orthogonalEdgeStyle;rounded=0;orthogonalLoop=1;jettySize=auto;html=1;" edge="1" parent="1" source="ndV3JWdsCVKpFoXk2zZ--4" target="ndV3JWdsCVKpFoXk2zZ--241">
          <mxGeometry relative="1" as="geometry" />
        </mxCell>
        <mxCell id="ndV3JWdsCVKpFoXk2zZ--340" style="edgeStyle=orthogonalEdgeStyle;rounded=0;orthogonalLoop=1;jettySize=auto;html=1;exitX=0.5;exitY=1;exitDx=0;exitDy=0;" edge="1" parent="1" source="ndV3JWdsCVKpFoXk2zZ--4" target="ndV3JWdsCVKpFoXk2zZ--119">
          <mxGeometry relative="1" as="geometry" />
        </mxCell>
        <mxCell id="ndV3JWdsCVKpFoXk2zZ--341" style="edgeStyle=orthogonalEdgeStyle;rounded=0;orthogonalLoop=1;jettySize=auto;html=1;exitX=0.5;exitY=1;exitDx=0;exitDy=0;" edge="1" parent="1" source="ndV3JWdsCVKpFoXk2zZ--4" target="ndV3JWdsCVKpFoXk2zZ--303">
          <mxGeometry relative="1" as="geometry" />
        </mxCell>
        <mxCell id="ndV3JWdsCVKpFoXk2zZ--4" value="" style="rounded=0;whiteSpace=wrap;html=1;" vertex="1" parent="1">
          <mxGeometry x="-236.25" y="50" width="610" height="290" as="geometry" />
        </mxCell>
        <mxCell id="NSSNdUl1MLXboPLtLDol-12" value="" style="whiteSpace=wrap;html=1;aspect=fixed;" parent="1" vertex="1">
          <mxGeometry x="1197.5" y="1233.5" width="320" height="320" as="geometry" />
        </mxCell>
        <mxCell id="NSSNdUl1MLXboPLtLDol-3" value="&lt;font style=&quot;font-size: 25px;&quot;&gt;EASYSAVE&lt;/font&gt;" style="text;html=1;strokeColor=none;fillColor=none;align=center;verticalAlign=middle;whiteSpace=wrap;rounded=0;" parent="1" vertex="1">
          <mxGeometry x="-238.75" y="80" width="180" height="30" as="geometry" />
        </mxCell>
        <mxCell id="NSSNdUl1MLXboPLtLDol-23" value="&lt;font style=&quot;font-size: 22px;&quot;&gt;Settings&lt;/font&gt;" style="text;html=1;strokeColor=none;fillColor=none;align=center;verticalAlign=middle;whiteSpace=wrap;rounded=0;" parent="1" vertex="1">
          <mxGeometry x="1290" y="1253.5" width="130" height="30" as="geometry" />
        </mxCell>
        <mxCell id="NSSNdUl1MLXboPLtLDol-24" style="edgeStyle=orthogonalEdgeStyle;rounded=0;orthogonalLoop=1;jettySize=auto;html=1;exitX=0.5;exitY=1;exitDx=0;exitDy=0;" parent="1" edge="1">
          <mxGeometry relative="1" as="geometry">
            <mxPoint x="-66.96000000000004" y="1317.5" as="sourcePoint" />
            <mxPoint x="-66.96000000000004" y="1317.5" as="targetPoint" />
          </mxGeometry>
        </mxCell>
        <mxCell id="NSSNdUl1MLXboPLtLDol-28" value="&lt;font style=&quot;font-size: 18px;&quot;&gt;Language&lt;/font&gt;" style="text;html=1;strokeColor=none;fillColor=none;align=center;verticalAlign=middle;whiteSpace=wrap;rounded=0;" parent="1" vertex="1">
          <mxGeometry x="1180" y="1305" width="200" height="30" as="geometry" />
        </mxCell>
        <mxCell id="NSSNdUl1MLXboPLtLDol-36" value="&lt;font style=&quot;font-size: 18px;&quot;&gt;Input extensions to encrypt&lt;/font&gt;" style="text;html=1;strokeColor=none;fillColor=none;align=center;verticalAlign=middle;whiteSpace=wrap;rounded=0;" parent="1" vertex="1">
          <mxGeometry x="1255" y="1428.5" width="200" height="30" as="geometry" />
        </mxCell>
        <mxCell id="NSSNdUl1MLXboPLtLDol-55" value="(text zone)&lt;br&gt;pdf&lt;br&gt;txt&lt;br&gt;..." style="rounded=0;whiteSpace=wrap;html=1;align=left;" parent="1" vertex="1">
          <mxGeometry x="1295" y="1468.5" width="120" height="60" as="geometry" />
        </mxCell>
        <mxCell id="NSSNdUl1MLXboPLtLDol-74" value="Close" style="rounded=0;whiteSpace=wrap;html=1;" parent="1" vertex="1">
          <mxGeometry x="1465" y="1243.5" width="40" height="20" as="geometry" />
        </mxCell>
        <mxCell id="NSSNdUl1MLXboPLtLDol-79" value="English" style="rounded=0;whiteSpace=wrap;html=1;" parent="1" vertex="1">
          <mxGeometry x="1210" y="1339.5" width="140" height="30" as="geometry" />
        </mxCell>
        <mxCell id="NSSNdUl1MLXboPLtLDol-80" value="French" style="rounded=0;whiteSpace=wrap;html=1;" parent="1" vertex="1">
          <mxGeometry x="1210" y="1369.5" width="140" height="30" as="geometry" />
        </mxCell>
        <mxCell id="NSSNdUl1MLXboPLtLDol-84" value="JSON" style="rounded=0;whiteSpace=wrap;html=1;" parent="1" vertex="1">
          <mxGeometry x="1365" y="1339.5" width="140" height="30" as="geometry" />
        </mxCell>
        <mxCell id="NSSNdUl1MLXboPLtLDol-85" value="XML" style="rounded=0;whiteSpace=wrap;html=1;" parent="1" vertex="1">
          <mxGeometry x="1365" y="1369.5" width="140" height="30" as="geometry" />
        </mxCell>
        <mxCell id="NSSNdUl1MLXboPLtLDol-146" value="" style="whiteSpace=wrap;html=1;aspect=fixed;" parent="1" vertex="1">
          <mxGeometry x="-420" y="1250" width="320" height="320" as="geometry" />
        </mxCell>
        <mxCell id="NSSNdUl1MLXboPLtLDol-158" value="New name :" style="text;html=1;strokeColor=none;fillColor=none;align=center;verticalAlign=middle;whiteSpace=wrap;rounded=0;" parent="1" vertex="1">
          <mxGeometry x="-412.6200000000001" y="1262.5" width="90" height="30" as="geometry" />
        </mxCell>
        <mxCell id="NSSNdUl1MLXboPLtLDol-159" value="" style="rounded=0;whiteSpace=wrap;html=1;" parent="1" vertex="1">
          <mxGeometry x="-401.3700000000001" y="1287.5" width="70" height="20" as="geometry" />
        </mxCell>
        <mxCell id="NSSNdUl1MLXboPLtLDol-160" value="New source folder :" style="text;html=1;strokeColor=none;fillColor=none;align=center;verticalAlign=middle;whiteSpace=wrap;rounded=0;" parent="1" vertex="1">
          <mxGeometry x="-412.6200000000001" y="1309" width="132.5" height="30" as="geometry" />
        </mxCell>
        <mxCell id="NSSNdUl1MLXboPLtLDol-161" value="" style="rounded=0;whiteSpace=wrap;html=1;" parent="1" vertex="1">
          <mxGeometry x="-401.3700000000001" y="1338.5" width="70" height="20" as="geometry" />
        </mxCell>
        <mxCell id="NSSNdUl1MLXboPLtLDol-162" value="New destination folder :" style="text;html=1;strokeColor=none;fillColor=none;align=center;verticalAlign=middle;whiteSpace=wrap;rounded=0;" parent="1" vertex="1">
          <mxGeometry x="-402.6200000000001" y="1359" width="132.5" height="30" as="geometry" />
        </mxCell>
        <mxCell id="NSSNdUl1MLXboPLtLDol-163" value="" style="rounded=0;whiteSpace=wrap;html=1;" parent="1" vertex="1">
          <mxGeometry x="-402.08000000000015" y="1383.5" width="70" height="20" as="geometry" />
        </mxCell>
        <mxCell id="NSSNdUl1MLXboPLtLDol-164" value="Full save" style="rounded=0;whiteSpace=wrap;html=1;" parent="1" vertex="1">
          <mxGeometry x="-231.12000000000012" y="1452.5" width="101.25" height="20" as="geometry" />
        </mxCell>
        <mxCell id="NSSNdUl1MLXboPLtLDol-165" value="Differential save" style="rounded=0;whiteSpace=wrap;html=1;" parent="1" vertex="1">
          <mxGeometry x="-401.3700000000001" y="1452.5" width="131.96" height="20" as="geometry" />
        </mxCell>
        <mxCell id="NSSNdUl1MLXboPLtLDol-166" value="Or" style="text;html=1;strokeColor=none;fillColor=none;align=center;verticalAlign=middle;whiteSpace=wrap;rounded=0;" parent="1" vertex="1">
          <mxGeometry x="-280.1200000000001" y="1447.5" width="60" height="30" as="geometry" />
        </mxCell>
        <mxCell id="NSSNdUl1MLXboPLtLDol-167" value="Save" style="rounded=0;whiteSpace=wrap;html=1;" parent="1" vertex="1">
          <mxGeometry x="-295.0000000000001" y="1528.5" width="70" height="20" as="geometry" />
        </mxCell>
        <mxCell id="NSSNdUl1MLXboPLtLDol-185" value="Launch save job" style="rounded=0;whiteSpace=wrap;html=1;" parent="1" vertex="1">
          <mxGeometry x="-223.75" y="130" width="200" height="30" as="geometry" />
        </mxCell>
        <mxCell id="NSSNdUl1MLXboPLtLDol-186" value="Create save job" style="rounded=0;whiteSpace=wrap;html=1;" parent="1" vertex="1">
          <mxGeometry x="-223.75" y="170" width="200" height="30" as="geometry" />
        </mxCell>
        <mxCell id="NSSNdUl1MLXboPLtLDol-187" value="Update save job" style="rounded=0;whiteSpace=wrap;html=1;" parent="1" vertex="1">
          <mxGeometry x="-223.75" y="210" width="200" height="30" as="geometry" />
        </mxCell>
        <mxCell id="NSSNdUl1MLXboPLtLDol-188" value="Delete save job" style="rounded=0;whiteSpace=wrap;html=1;" parent="1" vertex="1">
          <mxGeometry x="-223.75" y="250" width="200" height="30" as="geometry" />
        </mxCell>
        <mxCell id="NSSNdUl1MLXboPLtLDol-189" value="Settings" style="rounded=0;whiteSpace=wrap;html=1;" parent="1" vertex="1">
          <mxGeometry x="-223.75" y="290" width="200" height="30" as="geometry" />
        </mxCell>
        <mxCell id="ndV3JWdsCVKpFoXk2zZ--2" value="&lt;font style=&quot;font-size: 18px;&quot;&gt;Log format&lt;/font&gt;" style="text;html=1;strokeColor=none;fillColor=none;align=center;verticalAlign=middle;whiteSpace=wrap;rounded=0;" vertex="1" parent="1">
          <mxGeometry x="1335" y="1305" width="200" height="30" as="geometry" />
        </mxCell>
        <mxCell id="ndV3JWdsCVKpFoXk2zZ--5" value="Name" style="rounded=0;whiteSpace=wrap;html=1;" vertex="1" parent="1">
          <mxGeometry x="13.75" y="130" width="90" height="30" as="geometry" />
        </mxCell>
        <mxCell id="ndV3JWdsCVKpFoXk2zZ--7" value="Source" style="rounded=0;whiteSpace=wrap;html=1;" vertex="1" parent="1">
          <mxGeometry x="103.75" y="130" width="85" height="30" as="geometry" />
        </mxCell>
        <mxCell id="ndV3JWdsCVKpFoXk2zZ--9" value="Destination" style="rounded=0;whiteSpace=wrap;html=1;" vertex="1" parent="1">
          <mxGeometry x="188.75" y="130" width="85" height="30" as="geometry" />
        </mxCell>
        <mxCell id="ndV3JWdsCVKpFoXk2zZ--10" value="Type" style="rounded=0;whiteSpace=wrap;html=1;" vertex="1" parent="1">
          <mxGeometry x="273.75" y="130" width="85" height="30" as="geometry" />
        </mxCell>
        <mxCell id="ndV3JWdsCVKpFoXk2zZ--13" value="" style="rounded=0;whiteSpace=wrap;html=1;" vertex="1" parent="1">
          <mxGeometry x="13.75" y="160" width="345" height="160" as="geometry" />
        </mxCell>
        <mxCell id="ndV3JWdsCVKpFoXk2zZ--17" value="" style="rounded=0;whiteSpace=wrap;html=1;" vertex="1" parent="1">
          <mxGeometry x="103.75" y="160" width="85" height="160" as="geometry" />
        </mxCell>
        <mxCell id="ndV3JWdsCVKpFoXk2zZ--18" value="" style="rounded=0;whiteSpace=wrap;html=1;" vertex="1" parent="1">
          <mxGeometry x="188.75" y="160" width="85" height="160" as="geometry" />
        </mxCell>
        <mxCell id="ndV3JWdsCVKpFoXk2zZ--20" value="Type :" style="text;html=1;strokeColor=none;fillColor=none;align=center;verticalAlign=middle;whiteSpace=wrap;rounded=0;" vertex="1" parent="1">
          <mxGeometry x="-401.3700000000001" y="1422.5" width="51.37" height="30" as="geometry" />
        </mxCell>
        <mxCell id="ndV3JWdsCVKpFoXk2zZ--22" value="" style="rounded=0;whiteSpace=wrap;html=1;" vertex="1" parent="1">
          <mxGeometry x="-1562.5" y="700" width="520" height="320" as="geometry" />
        </mxCell>
        <mxCell id="ndV3JWdsCVKpFoXk2zZ--23" value="&lt;font style=&quot;font-size: 22px;&quot;&gt;Launch save job&lt;/font&gt;" style="text;html=1;strokeColor=none;fillColor=none;align=center;verticalAlign=middle;whiteSpace=wrap;rounded=0;" vertex="1" parent="1">
          <mxGeometry x="-1552.5" y="740" width="180" height="30" as="geometry" />
        </mxCell>
        <mxCell id="ndV3JWdsCVKpFoXk2zZ--24" value="Launch save job" style="rounded=0;whiteSpace=wrap;html=1;fillColor=#dae8fc;strokeColor=#6c8ebf;" vertex="1" parent="1">
          <mxGeometry x="-1552.5" y="786" width="150" height="30" as="geometry" />
        </mxCell>
        <mxCell id="ndV3JWdsCVKpFoXk2zZ--29" value="Name" style="rounded=0;whiteSpace=wrap;html=1;" vertex="1" parent="1">
          <mxGeometry x="-1390" y="786" width="90" height="30" as="geometry" />
        </mxCell>
        <mxCell id="ndV3JWdsCVKpFoXk2zZ--30" value="Source" style="rounded=0;whiteSpace=wrap;html=1;" vertex="1" parent="1">
          <mxGeometry x="-1300" y="786" width="85" height="30" as="geometry" />
        </mxCell>
        <mxCell id="ndV3JWdsCVKpFoXk2zZ--31" value="Destination" style="rounded=0;whiteSpace=wrap;html=1;" vertex="1" parent="1">
          <mxGeometry x="-1215" y="786" width="85" height="30" as="geometry" />
        </mxCell>
        <mxCell id="ndV3JWdsCVKpFoXk2zZ--32" value="Type" style="rounded=0;whiteSpace=wrap;html=1;" vertex="1" parent="1">
          <mxGeometry x="-1130" y="786" width="77.5" height="30" as="geometry" />
        </mxCell>
        <mxCell id="ndV3JWdsCVKpFoXk2zZ--33" value="&#xa;&lt;span style=&quot;color: rgb(0, 0, 0); font-family: Helvetica; font-size: 12px; font-style: normal; font-variant-ligatures: normal; font-variant-caps: normal; font-weight: 400; letter-spacing: normal; orphans: 2; text-align: center; text-indent: 0px; text-transform: none; widows: 2; word-spacing: 0px; -webkit-text-stroke-width: 0px; background-color: rgb(251, 251, 251); text-decoration-thickness: initial; text-decoration-style: initial; text-decoration-color: initial; float: none; display: inline !important;&quot;&gt;Save job 1&lt;/span&gt;&#xa;&#xa;" style="rounded=0;whiteSpace=wrap;html=1;" vertex="1" parent="1">
          <mxGeometry x="-1390" y="816" width="337.5" height="164" as="geometry" />
        </mxCell>
        <mxCell id="ndV3JWdsCVKpFoXk2zZ--34" value="" style="rounded=0;whiteSpace=wrap;html=1;" vertex="1" parent="1">
          <mxGeometry x="-1300" y="816" width="85" height="164" as="geometry" />
        </mxCell>
        <mxCell id="ndV3JWdsCVKpFoXk2zZ--35" value="" style="rounded=0;whiteSpace=wrap;html=1;" vertex="1" parent="1">
          <mxGeometry x="-1215" y="816" width="85" height="164" as="geometry" />
        </mxCell>
        <mxCell id="ndV3JWdsCVKpFoXk2zZ--44" value="" style="rounded=0;whiteSpace=wrap;html=1;strokeColor=none;fillColor=#dae8fc;" vertex="1" parent="1">
          <mxGeometry x="-1390" y="816" width="337.5" height="60" as="geometry" />
        </mxCell>
        <mxCell id="ndV3JWdsCVKpFoXk2zZ--37" value="Save job 1" style="rounded=0;whiteSpace=wrap;html=1;strokeColor=none;fillColor=none;" vertex="1" parent="1">
          <mxGeometry x="-1378.75" y="831" width="67.5" height="30" as="geometry" />
        </mxCell>
        <mxCell id="ndV3JWdsCVKpFoXk2zZ--38" value="C:/test" style="rounded=0;whiteSpace=wrap;html=1;strokeColor=none;fillColor=none;" vertex="1" parent="1">
          <mxGeometry x="-1291.25" y="831" width="67.5" height="30" as="geometry" />
        </mxCell>
        <mxCell id="ndV3JWdsCVKpFoXk2zZ--39" value="C:/test2" style="rounded=0;whiteSpace=wrap;html=1;strokeColor=none;fillColor=none;" vertex="1" parent="1">
          <mxGeometry x="-1206.25" y="831" width="67.5" height="30" as="geometry" />
        </mxCell>
        <mxCell id="ndV3JWdsCVKpFoXk2zZ--41" value="Full save" style="rounded=0;whiteSpace=wrap;html=1;strokeColor=none;fillColor=none;" vertex="1" parent="1">
          <mxGeometry x="-1125" y="831" width="67.5" height="30" as="geometry" />
        </mxCell>
        <mxCell id="ndV3JWdsCVKpFoXk2zZ--45" value="" style="endArrow=none;html=1;rounded=0;exitX=0.267;exitY=0;exitDx=0;exitDy=0;exitPerimeter=0;" edge="1" parent="1" source="ndV3JWdsCVKpFoXk2zZ--44">
          <mxGeometry width="50" height="50" relative="1" as="geometry">
            <mxPoint x="-1352.5" y="898.5" as="sourcePoint" />
            <mxPoint x="-1300" y="892.8050847457625" as="targetPoint" />
          </mxGeometry>
        </mxCell>
        <mxCell id="ndV3JWdsCVKpFoXk2zZ--51" value="" style="endArrow=none;html=1;rounded=0;exitX=0;exitY=0;exitDx=0;exitDy=0;entryX=0;entryY=0.385;entryDx=0;entryDy=0;entryPerimeter=0;" edge="1" parent="1" source="ndV3JWdsCVKpFoXk2zZ--44" target="ndV3JWdsCVKpFoXk2zZ--33">
          <mxGeometry width="50" height="50" relative="1" as="geometry">
            <mxPoint x="-1289.5" y="826" as="sourcePoint" />
            <mxPoint x="-1290" y="902.8050847457625" as="targetPoint" />
          </mxGeometry>
        </mxCell>
        <mxCell id="ndV3JWdsCVKpFoXk2zZ--52" value="Save job 2" style="rounded=0;whiteSpace=wrap;html=1;strokeColor=none;fillColor=none;" vertex="1" parent="1">
          <mxGeometry x="-1378.75" y="885" width="67.5" height="30" as="geometry" />
        </mxCell>
        <mxCell id="ndV3JWdsCVKpFoXk2zZ--53" value="C:/test" style="rounded=0;whiteSpace=wrap;html=1;strokeColor=none;fillColor=none;" vertex="1" parent="1">
          <mxGeometry x="-1291.25" y="885" width="67.5" height="30" as="geometry" />
        </mxCell>
        <mxCell id="ndV3JWdsCVKpFoXk2zZ--54" value="C:/test2" style="rounded=0;whiteSpace=wrap;html=1;strokeColor=none;fillColor=none;" vertex="1" parent="1">
          <mxGeometry x="-1206.25" y="885" width="67.5" height="30" as="geometry" />
        </mxCell>
        <mxCell id="ndV3JWdsCVKpFoXk2zZ--55" value="Differential save" style="rounded=0;whiteSpace=wrap;html=1;strokeColor=none;fillColor=none;" vertex="1" parent="1">
          <mxGeometry x="-1125.5" y="881" width="67.5" height="30" as="geometry" />
        </mxCell>
        <mxCell id="ndV3JWdsCVKpFoXk2zZ--56" value="" style="endArrow=none;html=1;rounded=0;exitX=0.267;exitY=0;exitDx=0;exitDy=0;exitPerimeter=0;entryX=0.001;entryY=0.384;entryDx=0;entryDy=0;entryPerimeter=0;" edge="1" parent="1" target="ndV3JWdsCVKpFoXk2zZ--35">
          <mxGeometry width="50" height="50" relative="1" as="geometry">
            <mxPoint x="-1215" y="812.5999999999999" as="sourcePoint" />
            <mxPoint x="-1215.5" y="889.4050847457627" as="targetPoint" />
          </mxGeometry>
        </mxCell>
        <mxCell id="ndV3JWdsCVKpFoXk2zZ--57" value="" style="endArrow=none;html=1;rounded=0;exitX=0;exitY=0.383;exitDx=0;exitDy=0;exitPerimeter=0;entryX=1;entryY=1;entryDx=0;entryDy=0;" edge="1" parent="1" source="ndV3JWdsCVKpFoXk2zZ--33" target="ndV3JWdsCVKpFoXk2zZ--44">
          <mxGeometry width="50" height="50" relative="1" as="geometry">
            <mxPoint x="-1279.5" y="836" as="sourcePoint" />
            <mxPoint x="-1280" y="912.8050847457625" as="targetPoint" />
          </mxGeometry>
        </mxCell>
        <mxCell id="ndV3JWdsCVKpFoXk2zZ--58" value="" style="endArrow=none;html=1;rounded=0;exitX=0.267;exitY=0;exitDx=0;exitDy=0;exitPerimeter=0;entryX=0.999;entryY=0.382;entryDx=0;entryDy=0;entryPerimeter=0;" edge="1" parent="1" target="ndV3JWdsCVKpFoXk2zZ--35">
          <mxGeometry width="50" height="50" relative="1" as="geometry">
            <mxPoint x="-1130" y="812.5999999999999" as="sourcePoint" />
            <mxPoint x="-1130.5" y="889.4050847457627" as="targetPoint" />
          </mxGeometry>
        </mxCell>
        <mxCell id="ndV3JWdsCVKpFoXk2zZ--59" value="" style="endArrow=none;html=1;rounded=0;entryX=1;entryY=1;entryDx=0;entryDy=0;exitX=0;exitY=0.684;exitDx=0;exitDy=0;exitPerimeter=0;" edge="1" parent="1" source="ndV3JWdsCVKpFoXk2zZ--33">
          <mxGeometry width="50" height="50" relative="1" as="geometry">
            <mxPoint x="-1392.5" y="925" as="sourcePoint" />
            <mxPoint x="-1053" y="925" as="targetPoint" />
          </mxGeometry>
        </mxCell>
        <mxCell id="ndV3JWdsCVKpFoXk2zZ--114" value="Create save job" style="rounded=0;whiteSpace=wrap;html=1;" vertex="1" parent="1">
          <mxGeometry x="-1552.5" y="825" width="150" height="30" as="geometry" />
        </mxCell>
        <mxCell id="ndV3JWdsCVKpFoXk2zZ--115" value="Update save job" style="rounded=0;whiteSpace=wrap;html=1;" vertex="1" parent="1">
          <mxGeometry x="-1552.5" y="865" width="150" height="30" as="geometry" />
        </mxCell>
        <mxCell id="ndV3JWdsCVKpFoXk2zZ--116" value="Delete save job" style="rounded=0;whiteSpace=wrap;html=1;" vertex="1" parent="1">
          <mxGeometry x="-1552.5" y="911" width="150" height="30" as="geometry" />
        </mxCell>
        <mxCell id="ndV3JWdsCVKpFoXk2zZ--118" value="Settings" style="rounded=0;whiteSpace=wrap;html=1;" vertex="1" parent="1">
          <mxGeometry x="-1552.5" y="951" width="150" height="30" as="geometry" />
        </mxCell>
        <mxCell id="ndV3JWdsCVKpFoXk2zZ--119" value="" style="rounded=0;whiteSpace=wrap;html=1;" vertex="1" parent="1">
          <mxGeometry x="457.5" y="700" width="520" height="320" as="geometry" />
        </mxCell>
        <mxCell id="ndV3JWdsCVKpFoXk2zZ--120" value="&lt;font style=&quot;font-size: 22px;&quot;&gt;Delete save job&lt;/font&gt;" style="text;html=1;strokeColor=none;fillColor=none;align=center;verticalAlign=middle;whiteSpace=wrap;rounded=0;" vertex="1" parent="1">
          <mxGeometry x="467.5" y="741.5" width="180" height="30" as="geometry" />
        </mxCell>
        <mxCell id="ndV3JWdsCVKpFoXk2zZ--122" value="Name" style="rounded=0;whiteSpace=wrap;html=1;" vertex="1" parent="1">
          <mxGeometry x="630" y="786" width="90" height="30" as="geometry" />
        </mxCell>
        <mxCell id="ndV3JWdsCVKpFoXk2zZ--123" value="Source" style="rounded=0;whiteSpace=wrap;html=1;" vertex="1" parent="1">
          <mxGeometry x="720" y="786" width="85" height="30" as="geometry" />
        </mxCell>
        <mxCell id="ndV3JWdsCVKpFoXk2zZ--124" value="Destination" style="rounded=0;whiteSpace=wrap;html=1;" vertex="1" parent="1">
          <mxGeometry x="805" y="786" width="85" height="30" as="geometry" />
        </mxCell>
        <mxCell id="ndV3JWdsCVKpFoXk2zZ--125" value="Type" style="rounded=0;whiteSpace=wrap;html=1;" vertex="1" parent="1">
          <mxGeometry x="890" y="786" width="77.5" height="30" as="geometry" />
        </mxCell>
        <mxCell id="ndV3JWdsCVKpFoXk2zZ--126" value="&#xa;&lt;span style=&quot;color: rgb(0, 0, 0); font-family: Helvetica; font-size: 12px; font-style: normal; font-variant-ligatures: normal; font-variant-caps: normal; font-weight: 400; letter-spacing: normal; orphans: 2; text-align: center; text-indent: 0px; text-transform: none; widows: 2; word-spacing: 0px; -webkit-text-stroke-width: 0px; background-color: rgb(251, 251, 251); text-decoration-thickness: initial; text-decoration-style: initial; text-decoration-color: initial; float: none; display: inline !important;&quot;&gt;Save job 1&lt;/span&gt;&#xa;&#xa;" style="rounded=0;whiteSpace=wrap;html=1;" vertex="1" parent="1">
          <mxGeometry x="630" y="816" width="337.5" height="164" as="geometry" />
        </mxCell>
        <mxCell id="ndV3JWdsCVKpFoXk2zZ--127" value="" style="rounded=0;whiteSpace=wrap;html=1;" vertex="1" parent="1">
          <mxGeometry x="720" y="816" width="85" height="164" as="geometry" />
        </mxCell>
        <mxCell id="ndV3JWdsCVKpFoXk2zZ--128" value="" style="rounded=0;whiteSpace=wrap;html=1;" vertex="1" parent="1">
          <mxGeometry x="805" y="816" width="85" height="164" as="geometry" />
        </mxCell>
        <mxCell id="ndV3JWdsCVKpFoXk2zZ--129" value="" style="rounded=0;whiteSpace=wrap;html=1;strokeColor=none;fillColor=#dae8fc;" vertex="1" parent="1">
          <mxGeometry x="630" y="816" width="337.5" height="60" as="geometry" />
        </mxCell>
        <mxCell id="ndV3JWdsCVKpFoXk2zZ--130" value="Save job 1" style="rounded=0;whiteSpace=wrap;html=1;strokeColor=none;fillColor=none;" vertex="1" parent="1">
          <mxGeometry x="641.25" y="831" width="67.5" height="30" as="geometry" />
        </mxCell>
        <mxCell id="ndV3JWdsCVKpFoXk2zZ--131" value="C:/test" style="rounded=0;whiteSpace=wrap;html=1;strokeColor=none;fillColor=none;" vertex="1" parent="1">
          <mxGeometry x="728.75" y="831" width="67.5" height="30" as="geometry" />
        </mxCell>
        <mxCell id="ndV3JWdsCVKpFoXk2zZ--132" value="C:/test2" style="rounded=0;whiteSpace=wrap;html=1;strokeColor=none;fillColor=none;" vertex="1" parent="1">
          <mxGeometry x="813.75" y="831" width="67.5" height="30" as="geometry" />
        </mxCell>
        <mxCell id="ndV3JWdsCVKpFoXk2zZ--133" value="Full save" style="rounded=0;whiteSpace=wrap;html=1;strokeColor=none;fillColor=none;" vertex="1" parent="1">
          <mxGeometry x="895" y="831" width="67.5" height="30" as="geometry" />
        </mxCell>
        <mxCell id="ndV3JWdsCVKpFoXk2zZ--134" value="" style="endArrow=none;html=1;rounded=0;exitX=0.267;exitY=0;exitDx=0;exitDy=0;exitPerimeter=0;" edge="1" parent="1" source="ndV3JWdsCVKpFoXk2zZ--129">
          <mxGeometry width="50" height="50" relative="1" as="geometry">
            <mxPoint x="667.5" y="898.5" as="sourcePoint" />
            <mxPoint x="720" y="892.8050847457625" as="targetPoint" />
          </mxGeometry>
        </mxCell>
        <mxCell id="ndV3JWdsCVKpFoXk2zZ--135" value="" style="endArrow=none;html=1;rounded=0;exitX=0;exitY=0;exitDx=0;exitDy=0;entryX=0;entryY=0.385;entryDx=0;entryDy=0;entryPerimeter=0;" edge="1" parent="1" source="ndV3JWdsCVKpFoXk2zZ--129" target="ndV3JWdsCVKpFoXk2zZ--126">
          <mxGeometry width="50" height="50" relative="1" as="geometry">
            <mxPoint x="730.5" y="826" as="sourcePoint" />
            <mxPoint x="730" y="902.8050847457625" as="targetPoint" />
          </mxGeometry>
        </mxCell>
        <mxCell id="ndV3JWdsCVKpFoXk2zZ--136" value="Save job 2" style="rounded=0;whiteSpace=wrap;html=1;strokeColor=none;fillColor=none;" vertex="1" parent="1">
          <mxGeometry x="641.25" y="885" width="67.5" height="30" as="geometry" />
        </mxCell>
        <mxCell id="ndV3JWdsCVKpFoXk2zZ--137" value="C:/test" style="rounded=0;whiteSpace=wrap;html=1;strokeColor=none;fillColor=none;" vertex="1" parent="1">
          <mxGeometry x="728.75" y="885" width="67.5" height="30" as="geometry" />
        </mxCell>
        <mxCell id="ndV3JWdsCVKpFoXk2zZ--138" value="C:/test2" style="rounded=0;whiteSpace=wrap;html=1;strokeColor=none;fillColor=none;" vertex="1" parent="1">
          <mxGeometry x="813.75" y="885" width="67.5" height="30" as="geometry" />
        </mxCell>
        <mxCell id="ndV3JWdsCVKpFoXk2zZ--139" value="Differential save" style="rounded=0;whiteSpace=wrap;html=1;strokeColor=none;fillColor=none;" vertex="1" parent="1">
          <mxGeometry x="894.5" y="881" width="67.5" height="30" as="geometry" />
        </mxCell>
        <mxCell id="ndV3JWdsCVKpFoXk2zZ--140" value="" style="endArrow=none;html=1;rounded=0;exitX=0.267;exitY=0;exitDx=0;exitDy=0;exitPerimeter=0;entryX=0.001;entryY=0.384;entryDx=0;entryDy=0;entryPerimeter=0;" edge="1" parent="1" target="ndV3JWdsCVKpFoXk2zZ--128">
          <mxGeometry width="50" height="50" relative="1" as="geometry">
            <mxPoint x="805" y="812.5999999999999" as="sourcePoint" />
            <mxPoint x="804.5" y="889.4050847457627" as="targetPoint" />
          </mxGeometry>
        </mxCell>
        <mxCell id="ndV3JWdsCVKpFoXk2zZ--141" value="" style="endArrow=none;html=1;rounded=0;exitX=0;exitY=0.383;exitDx=0;exitDy=0;exitPerimeter=0;entryX=1;entryY=1;entryDx=0;entryDy=0;" edge="1" parent="1" source="ndV3JWdsCVKpFoXk2zZ--126" target="ndV3JWdsCVKpFoXk2zZ--129">
          <mxGeometry width="50" height="50" relative="1" as="geometry">
            <mxPoint x="740.5" y="836" as="sourcePoint" />
            <mxPoint x="740" y="912.8050847457625" as="targetPoint" />
          </mxGeometry>
        </mxCell>
        <mxCell id="ndV3JWdsCVKpFoXk2zZ--142" value="" style="endArrow=none;html=1;rounded=0;exitX=0.267;exitY=0;exitDx=0;exitDy=0;exitPerimeter=0;entryX=0.999;entryY=0.382;entryDx=0;entryDy=0;entryPerimeter=0;" edge="1" parent="1" target="ndV3JWdsCVKpFoXk2zZ--128">
          <mxGeometry width="50" height="50" relative="1" as="geometry">
            <mxPoint x="890" y="812.5999999999999" as="sourcePoint" />
            <mxPoint x="889.5" y="889.4050847457627" as="targetPoint" />
          </mxGeometry>
        </mxCell>
        <mxCell id="ndV3JWdsCVKpFoXk2zZ--143" value="" style="endArrow=none;html=1;rounded=0;entryX=1;entryY=1;entryDx=0;entryDy=0;exitX=0;exitY=0.684;exitDx=0;exitDy=0;exitPerimeter=0;" edge="1" parent="1" source="ndV3JWdsCVKpFoXk2zZ--126">
          <mxGeometry width="50" height="50" relative="1" as="geometry">
            <mxPoint x="627.5" y="925" as="sourcePoint" />
            <mxPoint x="967" y="925" as="targetPoint" />
          </mxGeometry>
        </mxCell>
        <mxCell id="ndV3JWdsCVKpFoXk2zZ--144" value="Create save job" style="rounded=0;whiteSpace=wrap;html=1;" vertex="1" parent="1">
          <mxGeometry x="467.5" y="825" width="150" height="30" as="geometry" />
        </mxCell>
        <mxCell id="ndV3JWdsCVKpFoXk2zZ--145" value="Update save job" style="rounded=0;whiteSpace=wrap;html=1;" vertex="1" parent="1">
          <mxGeometry x="467.5" y="865" width="150" height="30" as="geometry" />
        </mxCell>
        <mxCell id="ndV3JWdsCVKpFoXk2zZ--146" value="Delete save job" style="rounded=0;whiteSpace=wrap;html=1;fillColor=#dae8fc;strokeColor=#6c8ebf;" vertex="1" parent="1">
          <mxGeometry x="467.5" y="911" width="150" height="30" as="geometry" />
        </mxCell>
        <mxCell id="ndV3JWdsCVKpFoXk2zZ--147" value="Settings" style="rounded=0;whiteSpace=wrap;html=1;" vertex="1" parent="1">
          <mxGeometry x="467.5" y="951" width="150" height="30" as="geometry" />
        </mxCell>
        <mxCell id="ndV3JWdsCVKpFoXk2zZ--148" value="Launch save job" style="rounded=0;whiteSpace=wrap;html=1;" vertex="1" parent="1">
          <mxGeometry x="467.5" y="786" width="150" height="30" as="geometry" />
        </mxCell>
        <mxCell id="ndV3JWdsCVKpFoXk2zZ--149" value="Close" style="rounded=0;whiteSpace=wrap;html=1;" vertex="1" parent="1">
          <mxGeometry x="-1097.5" y="715" width="40" height="20" as="geometry" />
        </mxCell>
        <mxCell id="ndV3JWdsCVKpFoXk2zZ--150" value="Close" style="rounded=0;whiteSpace=wrap;html=1;" vertex="1" parent="1">
          <mxGeometry x="927.5" y="715" width="40" height="20" as="geometry" />
        </mxCell>
        <mxCell id="ndV3JWdsCVKpFoXk2zZ--151" value="Close" style="rounded=0;whiteSpace=wrap;html=1;" vertex="1" parent="1">
          <mxGeometry x="324.5" y="60" width="40" height="20" as="geometry" />
        </mxCell>
        <mxCell id="ndV3JWdsCVKpFoXk2zZ--333" style="edgeStyle=orthogonalEdgeStyle;rounded=0;orthogonalLoop=1;jettySize=auto;html=1;" edge="1" parent="1" source="ndV3JWdsCVKpFoXk2zZ--152" target="NSSNdUl1MLXboPLtLDol-146">
          <mxGeometry relative="1" as="geometry" />
        </mxCell>
        <mxCell id="ndV3JWdsCVKpFoXk2zZ--152" value="" style="rounded=0;whiteSpace=wrap;html=1;" vertex="1" parent="1">
          <mxGeometry x="-852.5" y="700" width="520" height="320" as="geometry" />
        </mxCell>
        <mxCell id="ndV3JWdsCVKpFoXk2zZ--153" value="&lt;font style=&quot;font-size: 22px;&quot;&gt;Create save job&lt;/font&gt;" style="text;html=1;strokeColor=none;fillColor=none;align=center;verticalAlign=middle;whiteSpace=wrap;rounded=0;" vertex="1" parent="1">
          <mxGeometry x="-842.5" y="740" width="180" height="30" as="geometry" />
        </mxCell>
        <mxCell id="ndV3JWdsCVKpFoXk2zZ--155" value="Name" style="rounded=0;whiteSpace=wrap;html=1;" vertex="1" parent="1">
          <mxGeometry x="-680" y="786" width="90" height="30" as="geometry" />
        </mxCell>
        <mxCell id="ndV3JWdsCVKpFoXk2zZ--156" value="Source" style="rounded=0;whiteSpace=wrap;html=1;" vertex="1" parent="1">
          <mxGeometry x="-590" y="786" width="85" height="30" as="geometry" />
        </mxCell>
        <mxCell id="ndV3JWdsCVKpFoXk2zZ--157" value="Destination" style="rounded=0;whiteSpace=wrap;html=1;" vertex="1" parent="1">
          <mxGeometry x="-505" y="786" width="85" height="30" as="geometry" />
        </mxCell>
        <mxCell id="ndV3JWdsCVKpFoXk2zZ--158" value="Type" style="rounded=0;whiteSpace=wrap;html=1;" vertex="1" parent="1">
          <mxGeometry x="-420" y="786" width="77.5" height="30" as="geometry" />
        </mxCell>
        <mxCell id="ndV3JWdsCVKpFoXk2zZ--159" value="&#xa;&lt;span style=&quot;color: rgb(0, 0, 0); font-family: Helvetica; font-size: 12px; font-style: normal; font-variant-ligatures: normal; font-variant-caps: normal; font-weight: 400; letter-spacing: normal; orphans: 2; text-align: center; text-indent: 0px; text-transform: none; widows: 2; word-spacing: 0px; -webkit-text-stroke-width: 0px; background-color: rgb(251, 251, 251); text-decoration-thickness: initial; text-decoration-style: initial; text-decoration-color: initial; float: none; display: inline !important;&quot;&gt;Save job 1&lt;/span&gt;&#xa;&#xa;" style="rounded=0;whiteSpace=wrap;html=1;" vertex="1" parent="1">
          <mxGeometry x="-680" y="816" width="337.5" height="164" as="geometry" />
        </mxCell>
        <mxCell id="ndV3JWdsCVKpFoXk2zZ--160" value="" style="rounded=0;whiteSpace=wrap;html=1;" vertex="1" parent="1">
          <mxGeometry x="-590" y="816" width="85" height="164" as="geometry" />
        </mxCell>
        <mxCell id="ndV3JWdsCVKpFoXk2zZ--161" value="" style="rounded=0;whiteSpace=wrap;html=1;" vertex="1" parent="1">
          <mxGeometry x="-505" y="816" width="85" height="164" as="geometry" />
        </mxCell>
        <mxCell id="ndV3JWdsCVKpFoXk2zZ--163" value="Save job 1" style="rounded=0;whiteSpace=wrap;html=1;strokeColor=none;fillColor=none;" vertex="1" parent="1">
          <mxGeometry x="-668.75" y="831" width="67.5" height="30" as="geometry" />
        </mxCell>
        <mxCell id="ndV3JWdsCVKpFoXk2zZ--164" value="C:/test" style="rounded=0;whiteSpace=wrap;html=1;strokeColor=none;fillColor=none;" vertex="1" parent="1">
          <mxGeometry x="-581.25" y="831" width="67.5" height="30" as="geometry" />
        </mxCell>
        <mxCell id="ndV3JWdsCVKpFoXk2zZ--165" value="C:/test2" style="rounded=0;whiteSpace=wrap;html=1;strokeColor=none;fillColor=none;" vertex="1" parent="1">
          <mxGeometry x="-496.25" y="831" width="67.5" height="30" as="geometry" />
        </mxCell>
        <mxCell id="ndV3JWdsCVKpFoXk2zZ--166" value="Full save" style="rounded=0;whiteSpace=wrap;html=1;strokeColor=none;fillColor=none;" vertex="1" parent="1">
          <mxGeometry x="-415" y="831" width="67.5" height="30" as="geometry" />
        </mxCell>
        <mxCell id="ndV3JWdsCVKpFoXk2zZ--167" value="" style="endArrow=none;html=1;rounded=0;exitX=0.267;exitY=0;exitDx=0;exitDy=0;exitPerimeter=0;" edge="1" parent="1">
          <mxGeometry width="50" height="50" relative="1" as="geometry">
            <mxPoint x="-589.8874999999998" y="816" as="sourcePoint" />
            <mxPoint x="-590" y="892.8050847457625" as="targetPoint" />
          </mxGeometry>
        </mxCell>
        <mxCell id="ndV3JWdsCVKpFoXk2zZ--168" value="" style="endArrow=none;html=1;rounded=0;exitX=0;exitY=0;exitDx=0;exitDy=0;entryX=0;entryY=0.385;entryDx=0;entryDy=0;entryPerimeter=0;" edge="1" parent="1" target="ndV3JWdsCVKpFoXk2zZ--159">
          <mxGeometry width="50" height="50" relative="1" as="geometry">
            <mxPoint x="-680.0000000000005" y="816" as="sourcePoint" />
            <mxPoint x="-580" y="902.8050847457625" as="targetPoint" />
          </mxGeometry>
        </mxCell>
        <mxCell id="ndV3JWdsCVKpFoXk2zZ--169" value="Save job 2" style="rounded=0;whiteSpace=wrap;html=1;strokeColor=none;fillColor=none;" vertex="1" parent="1">
          <mxGeometry x="-668.75" y="885" width="67.5" height="30" as="geometry" />
        </mxCell>
        <mxCell id="ndV3JWdsCVKpFoXk2zZ--170" value="C:/test" style="rounded=0;whiteSpace=wrap;html=1;strokeColor=none;fillColor=none;" vertex="1" parent="1">
          <mxGeometry x="-581.25" y="885" width="67.5" height="30" as="geometry" />
        </mxCell>
        <mxCell id="ndV3JWdsCVKpFoXk2zZ--171" value="C:/test2" style="rounded=0;whiteSpace=wrap;html=1;strokeColor=none;fillColor=none;" vertex="1" parent="1">
          <mxGeometry x="-496.25" y="885" width="67.5" height="30" as="geometry" />
        </mxCell>
        <mxCell id="ndV3JWdsCVKpFoXk2zZ--172" value="Differential save" style="rounded=0;whiteSpace=wrap;html=1;strokeColor=none;fillColor=none;" vertex="1" parent="1">
          <mxGeometry x="-415.5" y="881" width="67.5" height="30" as="geometry" />
        </mxCell>
        <mxCell id="ndV3JWdsCVKpFoXk2zZ--173" value="" style="endArrow=none;html=1;rounded=0;exitX=0.267;exitY=0;exitDx=0;exitDy=0;exitPerimeter=0;entryX=0.001;entryY=0.384;entryDx=0;entryDy=0;entryPerimeter=0;" edge="1" parent="1" target="ndV3JWdsCVKpFoXk2zZ--161">
          <mxGeometry width="50" height="50" relative="1" as="geometry">
            <mxPoint x="-505" y="812.5999999999999" as="sourcePoint" />
            <mxPoint x="-505.5" y="889.4050847457627" as="targetPoint" />
          </mxGeometry>
        </mxCell>
        <mxCell id="ndV3JWdsCVKpFoXk2zZ--174" value="" style="endArrow=none;html=1;rounded=0;exitX=0;exitY=0.383;exitDx=0;exitDy=0;exitPerimeter=0;entryX=1;entryY=1;entryDx=0;entryDy=0;" edge="1" parent="1" source="ndV3JWdsCVKpFoXk2zZ--159">
          <mxGeometry width="50" height="50" relative="1" as="geometry">
            <mxPoint x="-569.5" y="836" as="sourcePoint" />
            <mxPoint x="-342.5" y="876" as="targetPoint" />
          </mxGeometry>
        </mxCell>
        <mxCell id="ndV3JWdsCVKpFoXk2zZ--175" value="" style="endArrow=none;html=1;rounded=0;exitX=0.267;exitY=0;exitDx=0;exitDy=0;exitPerimeter=0;entryX=0.999;entryY=0.382;entryDx=0;entryDy=0;entryPerimeter=0;" edge="1" parent="1" target="ndV3JWdsCVKpFoXk2zZ--161">
          <mxGeometry width="50" height="50" relative="1" as="geometry">
            <mxPoint x="-420" y="812.5999999999999" as="sourcePoint" />
            <mxPoint x="-420.5" y="889.4050847457627" as="targetPoint" />
          </mxGeometry>
        </mxCell>
        <mxCell id="ndV3JWdsCVKpFoXk2zZ--176" value="" style="endArrow=none;html=1;rounded=0;entryX=1;entryY=1;entryDx=0;entryDy=0;exitX=0;exitY=0.684;exitDx=0;exitDy=0;exitPerimeter=0;" edge="1" parent="1" source="ndV3JWdsCVKpFoXk2zZ--159">
          <mxGeometry width="50" height="50" relative="1" as="geometry">
            <mxPoint x="-682.5" y="925" as="sourcePoint" />
            <mxPoint x="-343" y="925" as="targetPoint" />
          </mxGeometry>
        </mxCell>
        <mxCell id="ndV3JWdsCVKpFoXk2zZ--177" value="Create save job" style="rounded=0;whiteSpace=wrap;html=1;fillColor=#dae8fc;strokeColor=#6c8ebf;" vertex="1" parent="1">
          <mxGeometry x="-842.5" y="825" width="150" height="30" as="geometry" />
        </mxCell>
        <mxCell id="ndV3JWdsCVKpFoXk2zZ--178" value="Update save job" style="rounded=0;whiteSpace=wrap;html=1;" vertex="1" parent="1">
          <mxGeometry x="-842.5" y="865" width="150" height="30" as="geometry" />
        </mxCell>
        <mxCell id="ndV3JWdsCVKpFoXk2zZ--179" value="Delete save job" style="rounded=0;whiteSpace=wrap;html=1;" vertex="1" parent="1">
          <mxGeometry x="-842.5" y="911" width="150" height="30" as="geometry" />
        </mxCell>
        <mxCell id="ndV3JWdsCVKpFoXk2zZ--180" value="Settings" style="rounded=0;whiteSpace=wrap;html=1;" vertex="1" parent="1">
          <mxGeometry x="-842.5" y="951" width="150" height="30" as="geometry" />
        </mxCell>
        <mxCell id="ndV3JWdsCVKpFoXk2zZ--181" value="Close" style="rounded=0;whiteSpace=wrap;html=1;" vertex="1" parent="1">
          <mxGeometry x="-387.5" y="715" width="40" height="20" as="geometry" />
        </mxCell>
        <mxCell id="ndV3JWdsCVKpFoXk2zZ--182" value="Launch save job" style="rounded=0;whiteSpace=wrap;html=1;" vertex="1" parent="1">
          <mxGeometry x="-842.5" y="786" width="150" height="30" as="geometry" />
        </mxCell>
        <mxCell id="ndV3JWdsCVKpFoXk2zZ--332" style="edgeStyle=orthogonalEdgeStyle;rounded=0;orthogonalLoop=1;jettySize=auto;html=1;entryX=0.5;entryY=0;entryDx=0;entryDy=0;" edge="1" parent="1" source="ndV3JWdsCVKpFoXk2zZ--241" target="NSSNdUl1MLXboPLtLDol-146">
          <mxGeometry relative="1" as="geometry" />
        </mxCell>
        <mxCell id="ndV3JWdsCVKpFoXk2zZ--241" value="" style="rounded=0;whiteSpace=wrap;html=1;" vertex="1" parent="1">
          <mxGeometry x="-192.5" y="700" width="520" height="320" as="geometry" />
        </mxCell>
        <mxCell id="ndV3JWdsCVKpFoXk2zZ--242" value="&lt;font style=&quot;font-size: 22px;&quot;&gt;Update save job&lt;/font&gt;" style="text;html=1;strokeColor=none;fillColor=none;align=center;verticalAlign=middle;whiteSpace=wrap;rounded=0;" vertex="1" parent="1">
          <mxGeometry x="-182.5" y="740" width="180" height="30" as="geometry" />
        </mxCell>
        <mxCell id="ndV3JWdsCVKpFoXk2zZ--243" value="Name" style="rounded=0;whiteSpace=wrap;html=1;" vertex="1" parent="1">
          <mxGeometry x="-20" y="786" width="90" height="30" as="geometry" />
        </mxCell>
        <mxCell id="ndV3JWdsCVKpFoXk2zZ--244" value="Source" style="rounded=0;whiteSpace=wrap;html=1;" vertex="1" parent="1">
          <mxGeometry x="70" y="786" width="85" height="30" as="geometry" />
        </mxCell>
        <mxCell id="ndV3JWdsCVKpFoXk2zZ--245" value="Destination" style="rounded=0;whiteSpace=wrap;html=1;" vertex="1" parent="1">
          <mxGeometry x="155" y="786" width="85" height="30" as="geometry" />
        </mxCell>
        <mxCell id="ndV3JWdsCVKpFoXk2zZ--246" value="Type" style="rounded=0;whiteSpace=wrap;html=1;" vertex="1" parent="1">
          <mxGeometry x="240" y="786" width="77.5" height="30" as="geometry" />
        </mxCell>
        <mxCell id="ndV3JWdsCVKpFoXk2zZ--247" value="&#xa;&lt;span style=&quot;color: rgb(0, 0, 0); font-family: Helvetica; font-size: 12px; font-style: normal; font-variant-ligatures: normal; font-variant-caps: normal; font-weight: 400; letter-spacing: normal; orphans: 2; text-align: center; text-indent: 0px; text-transform: none; widows: 2; word-spacing: 0px; -webkit-text-stroke-width: 0px; background-color: rgb(251, 251, 251); text-decoration-thickness: initial; text-decoration-style: initial; text-decoration-color: initial; float: none; display: inline !important;&quot;&gt;Save job 1&lt;/span&gt;&#xa;&#xa;" style="rounded=0;whiteSpace=wrap;html=1;" vertex="1" parent="1">
          <mxGeometry x="-20" y="816" width="337.5" height="164" as="geometry" />
        </mxCell>
        <mxCell id="ndV3JWdsCVKpFoXk2zZ--248" value="" style="rounded=0;whiteSpace=wrap;html=1;" vertex="1" parent="1">
          <mxGeometry x="70" y="816" width="85" height="164" as="geometry" />
        </mxCell>
        <mxCell id="ndV3JWdsCVKpFoXk2zZ--249" value="" style="rounded=0;whiteSpace=wrap;html=1;" vertex="1" parent="1">
          <mxGeometry x="155" y="816" width="85" height="164" as="geometry" />
        </mxCell>
        <mxCell id="ndV3JWdsCVKpFoXk2zZ--250" value="Save job 1" style="rounded=0;whiteSpace=wrap;html=1;strokeColor=none;fillColor=none;" vertex="1" parent="1">
          <mxGeometry x="-8.75" y="831" width="67.5" height="30" as="geometry" />
        </mxCell>
        <mxCell id="ndV3JWdsCVKpFoXk2zZ--251" value="C:/test" style="rounded=0;whiteSpace=wrap;html=1;strokeColor=none;fillColor=none;" vertex="1" parent="1">
          <mxGeometry x="78.75" y="831" width="67.5" height="30" as="geometry" />
        </mxCell>
        <mxCell id="ndV3JWdsCVKpFoXk2zZ--252" value="C:/test2" style="rounded=0;whiteSpace=wrap;html=1;strokeColor=none;fillColor=none;" vertex="1" parent="1">
          <mxGeometry x="163.75" y="831" width="67.5" height="30" as="geometry" />
        </mxCell>
        <mxCell id="ndV3JWdsCVKpFoXk2zZ--253" value="Full save" style="rounded=0;whiteSpace=wrap;html=1;strokeColor=none;fillColor=none;" vertex="1" parent="1">
          <mxGeometry x="245" y="831" width="67.5" height="30" as="geometry" />
        </mxCell>
        <mxCell id="ndV3JWdsCVKpFoXk2zZ--254" value="" style="endArrow=none;html=1;rounded=0;exitX=0.267;exitY=0;exitDx=0;exitDy=0;exitPerimeter=0;" edge="1" parent="1">
          <mxGeometry width="50" height="50" relative="1" as="geometry">
            <mxPoint x="70.11250000000018" y="816" as="sourcePoint" />
            <mxPoint x="70" y="892.8050847457625" as="targetPoint" />
          </mxGeometry>
        </mxCell>
        <mxCell id="ndV3JWdsCVKpFoXk2zZ--255" value="" style="endArrow=none;html=1;rounded=0;exitX=0;exitY=0;exitDx=0;exitDy=0;entryX=0;entryY=0.385;entryDx=0;entryDy=0;entryPerimeter=0;" edge="1" parent="1" target="ndV3JWdsCVKpFoXk2zZ--247">
          <mxGeometry width="50" height="50" relative="1" as="geometry">
            <mxPoint x="-20.000000000000455" y="816" as="sourcePoint" />
            <mxPoint x="80" y="902.8050847457625" as="targetPoint" />
          </mxGeometry>
        </mxCell>
        <mxCell id="ndV3JWdsCVKpFoXk2zZ--256" value="Save job 2" style="rounded=0;whiteSpace=wrap;html=1;strokeColor=none;fillColor=none;" vertex="1" parent="1">
          <mxGeometry x="-8.75" y="885" width="67.5" height="30" as="geometry" />
        </mxCell>
        <mxCell id="ndV3JWdsCVKpFoXk2zZ--257" value="C:/test" style="rounded=0;whiteSpace=wrap;html=1;strokeColor=none;fillColor=none;" vertex="1" parent="1">
          <mxGeometry x="78.75" y="885" width="67.5" height="30" as="geometry" />
        </mxCell>
        <mxCell id="ndV3JWdsCVKpFoXk2zZ--258" value="C:/test2" style="rounded=0;whiteSpace=wrap;html=1;strokeColor=none;fillColor=none;" vertex="1" parent="1">
          <mxGeometry x="163.75" y="885" width="67.5" height="30" as="geometry" />
        </mxCell>
        <mxCell id="ndV3JWdsCVKpFoXk2zZ--259" value="Differential save" style="rounded=0;whiteSpace=wrap;html=1;strokeColor=none;fillColor=none;" vertex="1" parent="1">
          <mxGeometry x="244.5" y="881" width="67.5" height="30" as="geometry" />
        </mxCell>
        <mxCell id="ndV3JWdsCVKpFoXk2zZ--260" value="" style="endArrow=none;html=1;rounded=0;exitX=0.267;exitY=0;exitDx=0;exitDy=0;exitPerimeter=0;entryX=0.001;entryY=0.384;entryDx=0;entryDy=0;entryPerimeter=0;" edge="1" parent="1" target="ndV3JWdsCVKpFoXk2zZ--249">
          <mxGeometry width="50" height="50" relative="1" as="geometry">
            <mxPoint x="155" y="812.5999999999999" as="sourcePoint" />
            <mxPoint x="154.5" y="889.4050847457627" as="targetPoint" />
          </mxGeometry>
        </mxCell>
        <mxCell id="ndV3JWdsCVKpFoXk2zZ--261" value="" style="endArrow=none;html=1;rounded=0;exitX=0;exitY=0.383;exitDx=0;exitDy=0;exitPerimeter=0;entryX=1;entryY=1;entryDx=0;entryDy=0;" edge="1" parent="1" source="ndV3JWdsCVKpFoXk2zZ--247">
          <mxGeometry width="50" height="50" relative="1" as="geometry">
            <mxPoint x="90.5" y="836" as="sourcePoint" />
            <mxPoint x="317.5" y="876" as="targetPoint" />
          </mxGeometry>
        </mxCell>
        <mxCell id="ndV3JWdsCVKpFoXk2zZ--262" value="" style="endArrow=none;html=1;rounded=0;exitX=0.267;exitY=0;exitDx=0;exitDy=0;exitPerimeter=0;entryX=0.999;entryY=0.382;entryDx=0;entryDy=0;entryPerimeter=0;" edge="1" parent="1" target="ndV3JWdsCVKpFoXk2zZ--249">
          <mxGeometry width="50" height="50" relative="1" as="geometry">
            <mxPoint x="240" y="812.5999999999999" as="sourcePoint" />
            <mxPoint x="239.5" y="889.4050847457627" as="targetPoint" />
          </mxGeometry>
        </mxCell>
        <mxCell id="ndV3JWdsCVKpFoXk2zZ--263" value="" style="endArrow=none;html=1;rounded=0;entryX=1;entryY=1;entryDx=0;entryDy=0;exitX=0;exitY=0.684;exitDx=0;exitDy=0;exitPerimeter=0;" edge="1" parent="1" source="ndV3JWdsCVKpFoXk2zZ--247">
          <mxGeometry width="50" height="50" relative="1" as="geometry">
            <mxPoint x="-22.5" y="925" as="sourcePoint" />
            <mxPoint x="317" y="925" as="targetPoint" />
          </mxGeometry>
        </mxCell>
        <mxCell id="ndV3JWdsCVKpFoXk2zZ--265" value="Update save job" style="rounded=0;whiteSpace=wrap;html=1;fillColor=#dae8fc;strokeColor=#6c8ebf;" vertex="1" parent="1">
          <mxGeometry x="-182.5" y="865" width="150" height="30" as="geometry" />
        </mxCell>
        <mxCell id="ndV3JWdsCVKpFoXk2zZ--266" value="Delete save job" style="rounded=0;whiteSpace=wrap;html=1;" vertex="1" parent="1">
          <mxGeometry x="-182.5" y="911" width="150" height="30" as="geometry" />
        </mxCell>
        <mxCell id="ndV3JWdsCVKpFoXk2zZ--267" value="Settings" style="rounded=0;whiteSpace=wrap;html=1;" vertex="1" parent="1">
          <mxGeometry x="-182.5" y="951" width="150" height="30" as="geometry" />
        </mxCell>
        <mxCell id="ndV3JWdsCVKpFoXk2zZ--268" value="Close" style="rounded=0;whiteSpace=wrap;html=1;" vertex="1" parent="1">
          <mxGeometry x="272.5" y="715" width="40" height="20" as="geometry" />
        </mxCell>
        <mxCell id="ndV3JWdsCVKpFoXk2zZ--269" value="Launch save job" style="rounded=0;whiteSpace=wrap;html=1;" vertex="1" parent="1">
          <mxGeometry x="-182.5" y="786" width="150" height="30" as="geometry" />
        </mxCell>
        <mxCell id="ndV3JWdsCVKpFoXk2zZ--272" value="Create save job" style="rounded=0;whiteSpace=wrap;html=1;" vertex="1" parent="1">
          <mxGeometry x="-182.5" y="825" width="150" height="30" as="geometry" />
        </mxCell>
        <mxCell id="ndV3JWdsCVKpFoXk2zZ--334" style="edgeStyle=orthogonalEdgeStyle;rounded=0;orthogonalLoop=1;jettySize=auto;html=1;entryX=0.5;entryY=0;entryDx=0;entryDy=0;" edge="1" parent="1" source="ndV3JWdsCVKpFoXk2zZ--303" target="NSSNdUl1MLXboPLtLDol-12">
          <mxGeometry relative="1" as="geometry" />
        </mxCell>
        <mxCell id="ndV3JWdsCVKpFoXk2zZ--303" value="" style="rounded=0;whiteSpace=wrap;html=1;" vertex="1" parent="1">
          <mxGeometry x="1097.5" y="700" width="520" height="320" as="geometry" />
        </mxCell>
        <mxCell id="ndV3JWdsCVKpFoXk2zZ--304" value="&lt;font style=&quot;font-size: 22px;&quot;&gt;Settings&lt;/font&gt;" style="text;html=1;strokeColor=none;fillColor=none;align=center;verticalAlign=middle;whiteSpace=wrap;rounded=0;" vertex="1" parent="1">
          <mxGeometry x="1107.5" y="740" width="180" height="30" as="geometry" />
        </mxCell>
        <mxCell id="ndV3JWdsCVKpFoXk2zZ--305" value="Name" style="rounded=0;whiteSpace=wrap;html=1;" vertex="1" parent="1">
          <mxGeometry x="1270" y="786" width="90" height="30" as="geometry" />
        </mxCell>
        <mxCell id="ndV3JWdsCVKpFoXk2zZ--306" value="Source" style="rounded=0;whiteSpace=wrap;html=1;" vertex="1" parent="1">
          <mxGeometry x="1360" y="786" width="85" height="30" as="geometry" />
        </mxCell>
        <mxCell id="ndV3JWdsCVKpFoXk2zZ--307" value="Destination" style="rounded=0;whiteSpace=wrap;html=1;" vertex="1" parent="1">
          <mxGeometry x="1445" y="786" width="85" height="30" as="geometry" />
        </mxCell>
        <mxCell id="ndV3JWdsCVKpFoXk2zZ--308" value="Type" style="rounded=0;whiteSpace=wrap;html=1;" vertex="1" parent="1">
          <mxGeometry x="1530" y="786" width="77.5" height="30" as="geometry" />
        </mxCell>
        <mxCell id="ndV3JWdsCVKpFoXk2zZ--309" value="&#xa;&lt;span style=&quot;color: rgb(0, 0, 0); font-family: Helvetica; font-size: 12px; font-style: normal; font-variant-ligatures: normal; font-variant-caps: normal; font-weight: 400; letter-spacing: normal; orphans: 2; text-align: center; text-indent: 0px; text-transform: none; widows: 2; word-spacing: 0px; -webkit-text-stroke-width: 0px; background-color: rgb(251, 251, 251); text-decoration-thickness: initial; text-decoration-style: initial; text-decoration-color: initial; float: none; display: inline !important;&quot;&gt;Save job 1&lt;/span&gt;&#xa;&#xa;" style="rounded=0;whiteSpace=wrap;html=1;" vertex="1" parent="1">
          <mxGeometry x="1270" y="816" width="337.5" height="164" as="geometry" />
        </mxCell>
        <mxCell id="ndV3JWdsCVKpFoXk2zZ--310" value="" style="rounded=0;whiteSpace=wrap;html=1;" vertex="1" parent="1">
          <mxGeometry x="1360" y="816" width="85" height="164" as="geometry" />
        </mxCell>
        <mxCell id="ndV3JWdsCVKpFoXk2zZ--311" value="" style="rounded=0;whiteSpace=wrap;html=1;" vertex="1" parent="1">
          <mxGeometry x="1445" y="816" width="85" height="164" as="geometry" />
        </mxCell>
        <mxCell id="ndV3JWdsCVKpFoXk2zZ--312" value="Save job 1" style="rounded=0;whiteSpace=wrap;html=1;strokeColor=none;fillColor=none;" vertex="1" parent="1">
          <mxGeometry x="1281.25" y="831" width="67.5" height="30" as="geometry" />
        </mxCell>
        <mxCell id="ndV3JWdsCVKpFoXk2zZ--313" value="C:/test" style="rounded=0;whiteSpace=wrap;html=1;strokeColor=none;fillColor=none;" vertex="1" parent="1">
          <mxGeometry x="1368.75" y="831" width="67.5" height="30" as="geometry" />
        </mxCell>
        <mxCell id="ndV3JWdsCVKpFoXk2zZ--314" value="C:/test2" style="rounded=0;whiteSpace=wrap;html=1;strokeColor=none;fillColor=none;" vertex="1" parent="1">
          <mxGeometry x="1453.75" y="831" width="67.5" height="30" as="geometry" />
        </mxCell>
        <mxCell id="ndV3JWdsCVKpFoXk2zZ--315" value="Full save" style="rounded=0;whiteSpace=wrap;html=1;strokeColor=none;fillColor=none;" vertex="1" parent="1">
          <mxGeometry x="1535" y="831" width="67.5" height="30" as="geometry" />
        </mxCell>
        <mxCell id="ndV3JWdsCVKpFoXk2zZ--316" value="" style="endArrow=none;html=1;rounded=0;exitX=0.267;exitY=0;exitDx=0;exitDy=0;exitPerimeter=0;" edge="1" parent="1">
          <mxGeometry width="50" height="50" relative="1" as="geometry">
            <mxPoint x="1360.1125000000002" y="816" as="sourcePoint" />
            <mxPoint x="1360" y="892.8050847457625" as="targetPoint" />
          </mxGeometry>
        </mxCell>
        <mxCell id="ndV3JWdsCVKpFoXk2zZ--317" value="" style="endArrow=none;html=1;rounded=0;exitX=0;exitY=0;exitDx=0;exitDy=0;entryX=0;entryY=0.385;entryDx=0;entryDy=0;entryPerimeter=0;" edge="1" parent="1" target="ndV3JWdsCVKpFoXk2zZ--309">
          <mxGeometry width="50" height="50" relative="1" as="geometry">
            <mxPoint x="1269.9999999999995" y="816" as="sourcePoint" />
            <mxPoint x="1370" y="902.8050847457625" as="targetPoint" />
          </mxGeometry>
        </mxCell>
        <mxCell id="ndV3JWdsCVKpFoXk2zZ--318" value="Save job 2" style="rounded=0;whiteSpace=wrap;html=1;strokeColor=none;fillColor=none;" vertex="1" parent="1">
          <mxGeometry x="1281.25" y="885" width="67.5" height="30" as="geometry" />
        </mxCell>
        <mxCell id="ndV3JWdsCVKpFoXk2zZ--319" value="C:/test" style="rounded=0;whiteSpace=wrap;html=1;strokeColor=none;fillColor=none;" vertex="1" parent="1">
          <mxGeometry x="1368.75" y="885" width="67.5" height="30" as="geometry" />
        </mxCell>
        <mxCell id="ndV3JWdsCVKpFoXk2zZ--320" value="C:/test2" style="rounded=0;whiteSpace=wrap;html=1;strokeColor=none;fillColor=none;" vertex="1" parent="1">
          <mxGeometry x="1453.75" y="885" width="67.5" height="30" as="geometry" />
        </mxCell>
        <mxCell id="ndV3JWdsCVKpFoXk2zZ--321" value="Differential save" style="rounded=0;whiteSpace=wrap;html=1;strokeColor=none;fillColor=none;" vertex="1" parent="1">
          <mxGeometry x="1534.5" y="881" width="67.5" height="30" as="geometry" />
        </mxCell>
        <mxCell id="ndV3JWdsCVKpFoXk2zZ--322" value="" style="endArrow=none;html=1;rounded=0;exitX=0.267;exitY=0;exitDx=0;exitDy=0;exitPerimeter=0;entryX=0.001;entryY=0.384;entryDx=0;entryDy=0;entryPerimeter=0;" edge="1" parent="1" target="ndV3JWdsCVKpFoXk2zZ--311">
          <mxGeometry width="50" height="50" relative="1" as="geometry">
            <mxPoint x="1445" y="812.5999999999999" as="sourcePoint" />
            <mxPoint x="1444.5" y="889.4050847457627" as="targetPoint" />
          </mxGeometry>
        </mxCell>
        <mxCell id="ndV3JWdsCVKpFoXk2zZ--323" value="" style="endArrow=none;html=1;rounded=0;exitX=0;exitY=0.383;exitDx=0;exitDy=0;exitPerimeter=0;entryX=1;entryY=1;entryDx=0;entryDy=0;" edge="1" parent="1" source="ndV3JWdsCVKpFoXk2zZ--309">
          <mxGeometry width="50" height="50" relative="1" as="geometry">
            <mxPoint x="1380.5" y="836" as="sourcePoint" />
            <mxPoint x="1607.5" y="876" as="targetPoint" />
          </mxGeometry>
        </mxCell>
        <mxCell id="ndV3JWdsCVKpFoXk2zZ--324" value="" style="endArrow=none;html=1;rounded=0;exitX=0.267;exitY=0;exitDx=0;exitDy=0;exitPerimeter=0;entryX=0.999;entryY=0.382;entryDx=0;entryDy=0;entryPerimeter=0;" edge="1" parent="1" target="ndV3JWdsCVKpFoXk2zZ--311">
          <mxGeometry width="50" height="50" relative="1" as="geometry">
            <mxPoint x="1530" y="812.5999999999999" as="sourcePoint" />
            <mxPoint x="1529.5" y="889.4050847457627" as="targetPoint" />
          </mxGeometry>
        </mxCell>
        <mxCell id="ndV3JWdsCVKpFoXk2zZ--325" value="" style="endArrow=none;html=1;rounded=0;entryX=1;entryY=1;entryDx=0;entryDy=0;exitX=0;exitY=0.684;exitDx=0;exitDy=0;exitPerimeter=0;" edge="1" parent="1" source="ndV3JWdsCVKpFoXk2zZ--309">
          <mxGeometry width="50" height="50" relative="1" as="geometry">
            <mxPoint x="1267.5" y="925" as="sourcePoint" />
            <mxPoint x="1607" y="925" as="targetPoint" />
          </mxGeometry>
        </mxCell>
        <mxCell id="ndV3JWdsCVKpFoXk2zZ--327" value="Delete save job" style="rounded=0;whiteSpace=wrap;html=1;" vertex="1" parent="1">
          <mxGeometry x="1107.5" y="911" width="150" height="30" as="geometry" />
        </mxCell>
        <mxCell id="ndV3JWdsCVKpFoXk2zZ--328" value="Settings" style="rounded=0;whiteSpace=wrap;html=1;fillColor=#dae8fc;strokeColor=#6c8ebf;" vertex="1" parent="1">
          <mxGeometry x="1107.5" y="951" width="150" height="30" as="geometry" />
        </mxCell>
        <mxCell id="ndV3JWdsCVKpFoXk2zZ--329" value="Close" style="rounded=0;whiteSpace=wrap;html=1;" vertex="1" parent="1">
          <mxGeometry x="1562.5" y="715" width="40" height="20" as="geometry" />
        </mxCell>
        <mxCell id="ndV3JWdsCVKpFoXk2zZ--330" value="Launch save job" style="rounded=0;whiteSpace=wrap;html=1;" vertex="1" parent="1">
          <mxGeometry x="1107.5" y="786" width="150" height="30" as="geometry" />
        </mxCell>
        <mxCell id="ndV3JWdsCVKpFoXk2zZ--331" value="Create save job" style="rounded=0;whiteSpace=wrap;html=1;" vertex="1" parent="1">
          <mxGeometry x="1107.5" y="825" width="150" height="30" as="geometry" />
        </mxCell>
        <mxCell id="ndV3JWdsCVKpFoXk2zZ--336" value="Update save job" style="rounded=0;whiteSpace=wrap;html=1;" vertex="1" parent="1">
          <mxGeometry x="1107.5" y="865" width="150" height="30" as="geometry" />
        </mxCell>
        <mxCell id="ndV3JWdsCVKpFoXk2zZ--342" value="Close" style="rounded=0;whiteSpace=wrap;html=1;" vertex="1" parent="1">
          <mxGeometry x="-150" y="1262.5" width="40" height="20" as="geometry" />
        </mxCell>
      </root>
    </mxGraphModel>
  </diagram>
</mxfile>
